<svg width="39" height="22" viewBox="0 0 39 22" fill="none" xmlns="http://www.w3.org/2000/svg">
<path d="M2.64072 0.859152L2.64084 0.859035L2.63152 0.850178C2.13117 0.374929 1.33743 0.382372 0.853554 0.879017L0.853522 0.878986L0.848964 0.883791C0.383677 1.37419 0.383677 2.14194 0.848965 2.63234L0.848839 2.63246L0.858129 2.64175L18.4015 20.1851C18.8943 20.6779 19.6914 20.6779 20.1841 20.1851L37.7276 2.64174L37.7277 2.64186L37.7365 2.63253C38.2118 2.13219 38.2044 1.33845 37.7077 0.854575L37.7077 0.854542L37.7029 0.849987C37.2125 0.384697 36.4448 0.384701 35.9544 0.849986L35.9543 0.849862L35.9451 0.85907L19.2891 17.5075L2.64072 0.859152Z" fill="white" stroke="white"/>
</svg>
