<svg width="22" height="39" viewBox="0 0 22 39" fill="none" xmlns="http://www.w3.org/2000/svg">
<path d="M0.859152 35.9459L0.859035 35.9458L0.850178 35.9552C0.374931 36.4555 0.38237 37.2492 0.879019 37.7331L0.878988 37.7331L0.883791 37.7377C1.37419 38.203 2.14194 38.203 2.63234 37.7377L2.63246 37.7378L2.64175 37.7285L20.1851 20.1852C20.6779 19.6924 20.6779 18.8953 20.1851 18.4026L2.64174 0.859098L2.64186 0.858984L2.63253 0.850126C2.13219 0.374876 1.33845 0.382318 0.854573 0.878965L0.854542 0.878935L0.849986 0.883737C0.384698 1.37414 0.384698 2.14189 0.849986 2.63229L0.849862 2.6324L0.859069 2.64161L17.5075 19.2976L0.859152 35.9459Z" fill="#2E496B" stroke="#2E496B"/>
</svg>
