<svg width="22" height="39" viewBox="0 0 22 39" fill="none" xmlns="http://www.w3.org/2000/svg">
<path d="M20.1955 35.9459L20.1957 35.9458L20.2045 35.9552C20.6798 36.4555 20.6723 37.2492 20.1757 37.7331L20.1757 37.7331L20.1709 37.7377C19.6805 38.203 18.9127 38.203 18.4223 37.7377L18.4222 37.7378L18.4129 37.7285L0.869555 20.1852C0.376817 19.6924 0.376817 18.8953 0.869556 18.4026L18.4129 0.859098L18.4128 0.858984L18.4222 0.850122C18.9225 0.374883 19.7162 0.382314 20.2001 0.878965L20.2001 0.878935L20.2047 0.883737C20.67 1.37414 20.67 2.14189 20.2047 2.63228L20.2048 2.6324L20.1956 2.64161L3.54716 19.2976L20.1955 35.9459Z" fill="#2E496B" stroke="#2E496B"/>
</svg>
